<?xml version="1.0" encoding="utf-8"?>
<!-- Generator: Adobe Illustrator 22.0.1, SVG Export Plug-In . SVG Version: 6.00 Build 0)  -->
<svg version="1.1" id="Layer_1" xmlns="http://www.w3.org/2000/svg" xmlns:xlink="http://www.w3.org/1999/xlink" x="0px" y="0px"
	 viewBox="0 0 500 500" style="enable-background:new 0 0 500 500;" xml:space="preserve">
<style type="text/css">
	.st0{fill:url(#SVGID_1_);}
	.st1{fill:#B7C2D3;}
	.st2{opacity:0.5;}
	.st3{fill:#FDD48C;}
	.st4{fill:#E5B465;}
	.st5{fill:#3ECEB9;}
	.st6{fill:#219E86;}
	.st7{fill:#2BAF98;}
	.st8{opacity:0.15;fill:#231F20;enable-background:new    ;}
	.st9{fill:#188973;}
	.st10{fill:#FF5D52;}
	.st11{fill:#E53C38;}
	.st12{fill:#F4524E;}
	.st13{fill:#D63030;}
	.st14{fill:#BC2222;}
	.st15{fill:#B9BBB7;}
	.st16{fill:#8C7F7E;}
	.st17{fill:#7C6F6E;}
	.st18{opacity:0.25;fill:#58595B;enable-background:new    ;}
</style>
<g>
	
		<linearGradient id="SVGID_1_" gradientUnits="userSpaceOnUse" x1="250" y1="-9.094947e-13" x2="250" y2="500" gradientTransform="matrix(1 0 0 -1 0 500)">
		<stop  offset="0" style="stop-color:#783576"/>
		<stop  offset="1" style="stop-color:#342B4A"/>
	</linearGradient>
	<rect x="0" class="st0" width="500" height="500"/>
	<circle class="st1" cx="107.3" cy="159" r="5"/>
	<circle class="st1" cx="444" cy="222" r="5"/>
	<circle class="st1" cx="32" cy="284" r="5"/>
	<g>
		<path class="st1" d="M51.3,294.1c0,0.8-0.6,1.4-1.4,1.4s-1.4-0.6-1.4-1.4s0.6-1.4,1.4-1.4C50.7,292.7,51.3,293.3,51.3,294.1z"/>
		<path class="st1" d="M64,341.5c0,0.8-0.6,1.4-1.4,1.4s-1.4-0.6-1.4-1.4s0.6-1.4,1.4-1.4S64,340.7,64,341.5z"/>
		<path class="st1" d="M71.7,313.1c0,0.4-0.3,0.7-0.7,0.7c-0.4,0-0.7-0.3-0.7-0.7s0.3-0.7,0.7-0.7C71.4,312.4,71.7,312.8,71.7,313.1
			z"/>
		<path class="st1" d="M35.4,336.3c0,0.4-0.3,0.7-0.7,0.7c-0.4,0-0.7-0.3-0.7-0.7c0-0.4,0.3-0.7,0.7-0.7
			C35.1,335.6,35.4,336,35.4,336.3z"/>
		<path class="st1" d="M20.9,317c0,0.4-0.3,0.7-0.7,0.7c-0.4,0-0.7-0.3-0.7-0.7c0-0.4,0.3-0.7,0.7-0.7
			C20.5,316.3,20.9,316.6,20.9,317z"/>
		<path class="st1" d="M75.3,339c0,0.4-0.3,0.7-0.7,0.7c-0.4,0-0.7-0.3-0.7-0.7s0.3-0.7,0.7-0.7S75.3,338.6,75.3,339z"/>
		<circle class="st1" cx="60.1" cy="319.6" r="0.7"/>
		<path class="st1" d="M50.9,358c0,0.4-0.3,0.7-0.7,0.7c-0.4,0-0.7-0.3-0.7-0.7c0-0.4,0.3-0.7,0.7-0.7
			C50.5,357.3,50.9,357.6,50.9,358z"/>
	</g>
	<g class="st2">
		<path class="st1" d="M163.2,96.6c0,0.8-0.6,1.4-1.4,1.4s-1.4-0.6-1.4-1.4s0.6-1.4,1.4-1.4C162.5,95.2,163.2,95.8,163.2,96.6z"/>
		<circle class="st1" cx="174.5" cy="144" r="1.4"/>
		<circle class="st1" cx="182.9" cy="115.6" r="0.7"/>
		<path class="st1" d="M147.3,138.8c0,0.4-0.3,0.7-0.7,0.7c-0.4,0-0.7-0.3-0.7-0.7c0-0.4,0.3-0.7,0.7-0.7S147.3,138.5,147.3,138.8z"
			/>
		<path class="st1" d="M132.7,119.5c0,0.4-0.3,0.7-0.7,0.7c-0.4,0-0.7-0.3-0.7-0.7c0-0.4,0.3-0.7,0.7-0.7
			C132.4,118.8,132.7,119.1,132.7,119.5z"/>
		<circle class="st1" cx="186.5" cy="141.5" r="0.7"/>
		<circle class="st1" cx="171.9" cy="122.1" r="0.7"/>
		<path class="st1" d="M162.7,160.5c0,0.4-0.3,0.7-0.7,0.7c-0.4,0-0.7-0.3-0.7-0.7s0.3-0.7,0.7-0.7
			C162.4,159.8,162.7,160.1,162.7,160.5z"/>
	</g>
	<g class="st2">
		<path class="st1" d="M394.1,166.7c0,0.8-0.6,1.4-1.4,1.4c-0.8,0-1.4-0.6-1.4-1.4c0-0.8,0.6-1.4,1.4-1.4
			C393.4,165.3,394.1,165.9,394.1,166.7z"/>
		<path class="st1" d="M406.8,214.1c0,0.8-0.6,1.4-1.4,1.4c-0.8,0-1.4-0.6-1.4-1.4c0-0.8,0.6-1.4,1.4-1.4
			C406.2,212.7,406.8,213.3,406.8,214.1z"/>
		<path class="st1" d="M414.4,185.7c0,0.4-0.3,0.7-0.7,0.7c-0.4,0-0.7-0.3-0.7-0.7s0.3-0.7,0.7-0.7S414.4,185.3,414.4,185.7z"/>
		<path class="st1" d="M378.2,208.9c0,0.4-0.3,0.7-0.7,0.7s-0.7-0.3-0.7-0.7s0.3-0.7,0.7-0.7S378.2,208.5,378.2,208.9z"/>
		<path class="st1" d="M363.6,189.5c0,0.4-0.3,0.7-0.7,0.7c-0.4,0-0.7-0.3-0.7-0.7s0.3-0.7,0.7-0.7
			C363.3,188.8,363.6,189.1,363.6,189.5z"/>
		<path class="st1" d="M418.1,211.6c0,0.4-0.3,0.7-0.7,0.7s-0.7-0.3-0.7-0.7s0.3-0.7,0.7-0.7C417.7,210.9,418.1,211.2,418.1,211.6z"
			/>
		<circle class="st1" cx="402.8" cy="192.2" r="0.7"/>
		<path class="st1" d="M393.6,230.5c0,0.4-0.3,0.7-0.7,0.7s-0.7-0.3-0.7-0.7s0.3-0.7,0.7-0.7S393.6,230.1,393.6,230.5z"/>
	</g>
	<g class="st2">
		<path class="st1" d="M290.3,19.9c0,0.8-0.6,1.4-1.4,1.4c-0.8,0-1.4-0.6-1.4-1.4c0-0.8,0.6-1.4,1.4-1.4S290.3,19.1,290.3,19.9z"/>
		<path class="st1" d="M303.1,67.3c0,0.8-0.6,1.4-1.4,1.4s-1.4-0.6-1.4-1.4s0.6-1.4,1.4-1.4C302.4,65.9,303.1,66.5,303.1,67.3z"/>
		<path class="st1" d="M310.7,38.9c0,0.4-0.3,0.7-0.7,0.7s-0.7-0.3-0.7-0.7s0.3-0.7,0.7-0.7C310.4,38.2,310.7,38.5,310.7,38.9z"/>
		<path class="st1" d="M274.4,62.1c0,0.4-0.3,0.7-0.7,0.7c-0.4,0-0.7-0.3-0.7-0.7s0.3-0.7,0.7-0.7C274.1,61.4,274.4,61.7,274.4,62.1
			z"/>
		<path class="st1" d="M259.9,42.8c0,0.4-0.3,0.7-0.7,0.7s-0.7-0.3-0.7-0.7c0-0.4,0.3-0.7,0.7-0.7S259.9,42.4,259.9,42.8z"/>
		<path class="st1" d="M314.3,64.8c0,0.4-0.3,0.7-0.7,0.7s-0.7-0.3-0.7-0.7c0-0.4,0.3-0.7,0.7-0.7S314.3,64.4,314.3,64.8z"/>
		<path class="st1" d="M299.8,45.4c0,0.4-0.3,0.7-0.7,0.7s-0.7-0.3-0.7-0.7s0.3-0.7,0.7-0.7C299.5,44.7,299.8,45,299.8,45.4z"/>
		<path class="st1" d="M289.9,83.8c0,0.4-0.3,0.7-0.7,0.7c-0.4,0-0.7-0.3-0.7-0.7c0-0.4,0.3-0.7,0.7-0.7
			C289.6,83.1,289.9,83.4,289.9,83.8z"/>
	</g>
	<g class="st2">
		<path class="st1" d="M350.8,86.5c-0.8,0.1-1.5-0.4-1.6-1.2c-0.1-0.8,0.4-1.5,1.2-1.6s1.5,0.4,1.6,1.2S351.6,86.4,350.8,86.5z"/>
		<path class="st1" d="M306.1,106.6c-0.8,0.1-1.5-0.4-1.6-1.2c-0.1-0.8,0.4-1.5,1.2-1.6c0.8-0.1,1.5,0.4,1.6,1.2
			C307.3,105.7,306.8,106.4,306.1,106.6z"/>
		<path class="st1" d="M335.3,109.7c-0.4,0.1-0.7-0.2-0.8-0.6s0.2-0.7,0.6-0.8c0.4-0.1,0.7,0.2,0.8,0.6
			C335.9,109.2,335.6,109.6,335.3,109.7z"/>
		<path class="st1" d="M306.6,77.5c-0.4,0.1-0.7-0.2-0.8-0.6c-0.1-0.4,0.2-0.7,0.6-0.8c0.4-0.1,0.7,0.2,0.8,0.6
			C307.3,77.1,307,77.4,306.6,77.5z"/>
		<path class="st1" d="M323.5,60.1c-0.4,0.1-0.7-0.2-0.8-0.6c-0.1-0.4,0.2-0.7,0.6-0.8c0.4-0.1,0.7,0.2,0.8,0.6
			C324.1,59.7,323.9,60,323.5,60.1z"/>
		<path class="st1" d="M310.3,117.3c-0.4,0.1-0.7-0.2-0.8-0.6s0.2-0.7,0.6-0.8c0.4-0.1,0.7,0.2,0.8,0.6
			C310.9,116.9,310.7,117.2,310.3,117.3z"/>
		<path class="st1" d="M327.1,99.9c-0.4,0.1-0.7-0.2-0.8-0.6c-0.1-0.4,0.2-0.7,0.6-0.8c0.4-0.1,0.7,0.2,0.8,0.6
			C327.8,99.5,327.5,99.8,327.1,99.9z"/>
		<path class="st1" d="M287.7,96.2c-0.4,0.1-0.7-0.2-0.8-0.6s0.2-0.7,0.6-0.8c0.4-0.1,0.7,0.2,0.8,0.6
			C288.4,95.8,288.1,96.1,287.7,96.2z"/>
	</g>
	<g class="st2">
		<path class="st1" d="M439.1,466.1c-0.8,0-1.4-0.6-1.4-1.3c0-0.8,0.6-1.4,1.3-1.4c0.8,0,1.4,0.6,1.4,1.3
			C440.5,465.4,439.9,466.1,439.1,466.1z"/>
		<path class="st1" d="M392.2,480.5c-0.8,0-1.4-0.6-1.4-1.3c0-0.8,0.6-1.4,1.3-1.4c0.8,0,1.4,0.6,1.4,1.3S392.9,480.4,392.2,480.5z"
			/>
		<path class="st1" d="M420.8,487.1c-0.4,0-0.7-0.3-0.7-0.7c0-0.4,0.3-0.7,0.7-0.7c0.4,0,0.7,0.3,0.7,0.7
			C421.5,486.8,421.2,487.1,420.8,487.1z"/>
		<path class="st1" d="M396.4,451.7c-0.4,0-0.7-0.3-0.7-0.7c0-0.4,0.3-0.7,0.7-0.7s0.7,0.3,0.7,0.7
			C397,451.4,396.7,451.7,396.4,451.7z"/>
		<path class="st1" d="M415.2,436.5c-0.4,0-0.7-0.3-0.7-0.7c0-0.4,0.3-0.7,0.7-0.7c0.4,0,0.7,0.3,0.7,0.7S415.6,436.5,415.2,436.5z"
			/>
		<path class="st1" d="M395.1,491.6c-0.4,0-0.7-0.3-0.7-0.7c0-0.4,0.3-0.7,0.7-0.7s0.7,0.3,0.7,0.7
			C395.7,491.3,395.4,491.6,395.1,491.6z"/>
		<path class="st1" d="M413.9,476.5c-0.4,0-0.7-0.3-0.7-0.7c0-0.4,0.3-0.7,0.7-0.7s0.7,0.3,0.7,0.7
			C414.6,476.1,414.3,476.4,413.9,476.5z"/>
		<path class="st1" d="M375.3,467.9c-0.4,0-0.7-0.3-0.7-0.7c0-0.4,0.3-0.7,0.7-0.7c0.4,0,0.7,0.3,0.7,0.7
			C375.9,467.6,375.6,467.9,375.3,467.9z"/>
	</g>
	<g class="st2">
		<path class="st1" d="M472.1,263.9c-0.6,0-1.2-0.5-1.2-1.1s0.5-1.2,1.1-1.2s1.2,0.5,1.2,1.1C473.3,263.3,472.8,263.9,472.1,263.9z"
			/>
		<path class="st1" d="M433.2,275.8c-0.6,0-1.2-0.5-1.2-1.1s0.5-1.2,1.1-1.2s1.2,0.5,1.2,1.1C434.4,275.3,433.9,275.8,433.2,275.8z"
			/>
		<path class="st1" d="M457,281.4c-0.3,0-0.6-0.2-0.6-0.6c0-0.3,0.2-0.6,0.6-0.6c0.3,0,0.6,0.2,0.6,0.6
			C457.5,281.1,457.3,281.3,457,281.4z"/>
		<path class="st1" d="M436.7,251.9c-0.3,0-0.6-0.2-0.6-0.6c0-0.3,0.2-0.6,0.6-0.6c0.3,0,0.6,0.2,0.6,0.6
			C437.2,251.7,437,251.9,436.7,251.9z"/>
		<path class="st1" d="M452.3,239.3c-0.3,0-0.6-0.2-0.6-0.6c0-0.3,0.2-0.6,0.6-0.6c0.3,0,0.6,0.2,0.6,0.6S452.6,239.3,452.3,239.3z"
			/>
		<path class="st1" d="M435.6,285.1c-0.3,0-0.6-0.2-0.6-0.6c0-0.3,0.2-0.6,0.6-0.6c0.3,0,0.6,0.2,0.6,0.6
			C436.2,284.8,435.9,285.1,435.6,285.1z"/>
		<path class="st1" d="M451.3,272.5c-0.3,0-0.6-0.2-0.6-0.6c0-0.3,0.2-0.6,0.6-0.6c0.3,0,0.6,0.2,0.6,0.6S451.6,272.5,451.3,272.5z"
			/>
		<path class="st1" d="M419.2,265.4c-0.3,0-0.6-0.2-0.6-0.6c0-0.3,0.2-0.6,0.6-0.6c0.3,0,0.6,0.2,0.6,0.6S419.5,265.4,419.2,265.4z"
			/>
	</g>
	<g class="st2">
		<path class="st1" d="M331,388.3c0.6,0,1.1,0.5,1.1,1.2c0,0.6-0.5,1.1-1.2,1.1c-0.6,0-1.1-0.5-1.1-1.2
			C329.8,388.8,330.4,388.3,331,388.3z"/>
		<path class="st1" d="M370.3,377.9c0.6,0,1.1,0.5,1.1,1.2c0,0.6-0.5,1.1-1.2,1.1c-0.6,0-1.1-0.5-1.1-1.2
			C369.2,378.4,369.7,377.9,370.3,377.9z"/>
		<path class="st1" d="M346.8,371.5c0.3,0,0.6,0.3,0.6,0.6s-0.3,0.6-0.6,0.6c-0.3,0-0.6-0.3-0.6-0.6
			C346.2,371.7,346.5,371.5,346.8,371.5z"/>
		<path class="st1" d="M366,401.6c0.3,0,0.6,0.3,0.6,0.6c0,0.3-0.3,0.6-0.6,0.6s-0.6-0.3-0.6-0.6S365.7,401.6,366,401.6z"/>
		<path class="st1" d="M349.9,413.6c0.3,0,0.6,0.3,0.6,0.6c0,0.3-0.3,0.6-0.6,0.6s-0.6-0.3-0.6-0.6S349.6,413.6,349.9,413.6z"/>
		<path class="st1" d="M368.3,368.5c0.3,0,0.6,0.3,0.6,0.6c0,0.3-0.3,0.6-0.6,0.6c-0.3,0-0.6-0.3-0.6-0.6S368,368.5,368.3,368.5z"/>
		<path class="st1" d="M352.2,380.5c0.3,0,0.6,0.3,0.6,0.6c0,0.3-0.3,0.6-0.6,0.6c-0.3,0-0.6-0.3-0.6-0.6
			C351.6,380.8,351.9,380.5,352.2,380.5z"/>
		<path class="st1" d="M384,388.8c0.3,0,0.6,0.3,0.6,0.6c0,0.3-0.3,0.6-0.6,0.6s-0.6-0.3-0.6-0.6C383.4,389.1,383.7,388.8,384,388.8
			z"/>
	</g>
	<g class="st2">
		<path class="st1" d="M259,427c-0.6,0-1.2-0.5-1.2-1.1s0.5-1.2,1.1-1.2s1.2,0.5,1.2,1.1S259.6,426.9,259,427z"/>
		<path class="st1" d="M220.1,438.9c-0.6,0-1.2-0.5-1.2-1.1s0.5-1.2,1.1-1.2s1.2,0.5,1.2,1.1S220.7,438.9,220.1,438.9z"/>
		<path class="st1" d="M243.8,444.4c-0.3,0-0.6-0.2-0.6-0.6c0-0.3,0.2-0.6,0.6-0.6c0.3,0,0.6,0.2,0.6,0.6
			C244.4,444.1,244.1,444.4,243.8,444.4z"/>
		<path class="st1" d="M223.5,415c-0.3,0-0.6-0.2-0.6-0.6c0-0.3,0.2-0.6,0.6-0.6c0.3,0,0.6,0.2,0.6,0.6
			C224.1,414.7,223.8,415,223.5,415z"/>
		<path class="st1" d="M239.2,402.4c-0.3,0-0.6-0.2-0.6-0.6c0-0.3,0.2-0.6,0.6-0.6c0.3,0,0.6,0.2,0.6,0.6
			C239.7,402.1,239.5,402.4,239.2,402.4z"/>
		<path class="st1" d="M222.5,448.2c-0.3,0-0.6-0.2-0.6-0.6c0-0.3,0.2-0.6,0.6-0.6c0.3,0,0.6,0.2,0.6,0.6S222.8,448.1,222.5,448.2z"
			/>
		<path class="st1" d="M238.1,435.6c-0.3,0-0.6-0.2-0.6-0.6s0.2-0.6,0.6-0.6c0.3,0,0.6,0.2,0.6,0.6
			C238.7,435.3,238.4,435.5,238.1,435.6z"/>
		<path class="st1" d="M206,428.5c-0.3,0-0.6-0.2-0.6-0.6c0-0.3,0.2-0.6,0.6-0.6c0.3,0,0.6,0.2,0.6,0.6
			C206.6,428.2,206.3,428.4,206,428.5z"/>
	</g>
	<g class="st2">
		<path class="st1" d="M120.8,396c0.1-0.6,0.6-1.1,1.2-1.1c0.6,0.1,1.1,0.6,1.1,1.2c-0.1,0.6-0.6,1.1-1.2,1.1
			C121.2,397.2,120.8,396.7,120.8,396z"/>
		<path class="st1" d="M113.5,356c0.1-0.6,0.6-1.1,1.2-1.1c0.6,0.1,1.1,0.6,1.1,1.2c-0.1,0.6-0.6,1.1-1.2,1.1S113.5,356.6,113.5,356
			z"/>
		<path class="st1" d="M105.3,378.9c0-0.3,0.3-0.6,0.6-0.5c0.3,0,0.6,0.3,0.5,0.6c0,0.3-0.3,0.6-0.6,0.5
			C105.5,379.5,105.2,379.2,105.3,378.9z"/>
		<path class="st1" d="M136.8,362.2c0-0.3,0.3-0.6,0.6-0.5c0.3,0,0.6,0.3,0.5,0.6c0,0.3-0.3,0.6-0.6,0.5
			C137.1,362.8,136.8,362.5,136.8,362.2z"/>
		<path class="st1" d="M147.5,379.2c0-0.3,0.3-0.6,0.6-0.5c0.3,0,0.6,0.3,0.5,0.6c0,0.3-0.3,0.6-0.6,0.5
			C147.7,379.8,147.5,379.5,147.5,379.2z"/>
		<path class="st1" d="M104,357.3c0-0.3,0.3-0.6,0.6-0.5c0.3,0,0.6,0.3,0.5,0.6c0,0.3-0.3,0.6-0.6,0.5
			C104.3,357.9,104,357.6,104,357.3z"/>
		<path class="st1" d="M114.7,374.3c0-0.3,0.3-0.6,0.6-0.5c0.3,0,0.6,0.3,0.5,0.6c0,0.3-0.3,0.6-0.6,0.5
			C114.9,374.9,114.7,374.6,114.7,374.3z"/>
		<path class="st1" d="M125.5,343.2c0-0.3,0.3-0.6,0.6-0.5c0.3,0,0.6,0.3,0.5,0.6c0,0.3-0.3,0.6-0.6,0.5
			C125.7,343.8,125.5,343.6,125.5,343.2z"/>
	</g>
	<g class="st2">
		<path class="st1" d="M109.2,267.9c-0.6,0-1.2-0.5-1.2-1.1s0.5-1.2,1.1-1.2s1.2,0.5,1.2,1.1C110.4,267.3,109.9,267.8,109.2,267.9z"
			/>
		<path class="st1" d="M70.3,279.8c-0.6,0-1.2-0.5-1.2-1.1s0.5-1.2,1.1-1.2s1.2,0.5,1.2,1.1C71.4,279.2,70.9,279.7,70.3,279.8z"/>
		<path class="st1" d="M94,285.3c-0.3,0-0.6-0.2-0.6-0.6c0-0.3,0.2-0.6,0.6-0.6c0.3,0,0.6,0.2,0.6,0.6C94.6,285,94.3,285.3,94,285.3
			z"/>
		<path class="st1" d="M73.8,255.9c-0.3,0-0.6-0.2-0.6-0.6c0-0.3,0.2-0.6,0.6-0.6c0.3,0,0.6,0.2,0.6,0.6
			C74.3,255.6,74.1,255.9,73.8,255.9z"/>
		<path class="st1" d="M89.4,243.3c-0.3,0-0.6-0.2-0.6-0.6c0-0.3,0.2-0.6,0.6-0.6c0.3,0,0.6,0.2,0.6,0.6
			C90,243,89.7,243.3,89.4,243.3z"/>
		<path class="st1" d="M72.7,289c-0.3,0-0.6-0.2-0.6-0.6c0-0.3,0.2-0.6,0.6-0.6c0.3,0,0.6,0.2,0.6,0.6C73.3,288.8,73,289,72.7,289z"
			/>
		<path class="st1" d="M88.3,276.4c-0.3,0-0.6-0.2-0.6-0.6c0-0.3,0.2-0.6,0.6-0.6c0.3,0,0.6,0.2,0.6,0.6
			C88.9,276.2,88.6,276.4,88.3,276.4z"/>
		<path class="st1" d="M56.3,269.3c-0.3,0-0.6-0.2-0.6-0.6c0-0.3,0.2-0.6,0.6-0.6c0.3,0,0.6,0.2,0.6,0.6
			C56.8,269.1,56.6,269.3,56.3,269.3z"/>
	</g>
	<circle class="st1" cx="433.5" cy="298" r="2.5"/>
	<circle class="st1" cx="290" cy="418.5" r="2.5"/>
	<circle class="st1" cx="105.5" cy="338" r="2.5"/>
	<circle class="st1" cx="251.5" cy="450.5" r="2.5"/>
	<circle class="st1" cx="142.5" cy="456" r="2.5"/>
	<circle class="st1" cx="374.5" cy="430" r="2.5"/>
	<circle class="st1" cx="469.5" cy="53" r="2.5"/>
	<circle class="st1" cx="207.5" cy="37" r="2.5"/>
	<g>
		<polygon class="st3" points="476.5,455.4 474,457.1 469.4,460.2 468.5,467.7 464.1,463.7 462.2,462 454.2,463.9 457.6,456.9 
			453.7,449.2 461.9,449.7 467.1,444.5 469,452 		"/>
		<path class="st4" d="M474,457.1l-4.7,3.1l-0.9,7.5l-4.4-4c0.3-0.2,0.6-0.3,1-0.3c0.3,0,0.7,0,1-0.1c0.8-0.2,1.3-1,1.6-1.7
			c0.5-1,0.9-1.9,1.4-2.9c0.2-0.4,0.4-0.9,0.8-1.2c0.8-0.7,2.1-0.6,3.2-0.5C473.3,457,473.6,457.1,474,457.1z"/>
	</g>
	<g>
		<polygon class="st3" points="186.7,410.7 185,411.9 181.9,414 181.3,419 178.3,416.3 177,415.2 171.6,416.4 174,411.7 
			171.3,406.6 176.8,406.9 180.4,403.4 181.6,408.5 		"/>
		<path class="st4" d="M185,411.9l-3.1,2.1l-0.6,5l-2.9-2.7c0.2-0.1,0.4-0.2,0.6-0.2s0.5,0,0.7,0c0.5-0.1,0.8-0.7,1.1-1.2
			c0.3-0.7,0.6-1.3,0.9-2c0.1-0.3,0.3-0.6,0.5-0.8c0.5-0.5,1.4-0.4,2.1-0.3C184.5,411.8,184.7,411.8,185,411.9z"/>
	</g>
	<g>
		<polygon class="st3" points="277.5,434.7 276.3,435.5 274.1,437 273.7,440.5 271.6,438.6 270.7,437.8 266.9,438.7 268.6,435.4 
			266.7,431.8 270.6,432 273.1,429.6 274,433.1 		"/>
		<path class="st4" d="M276.3,435.5l-2.2,1.5l-0.4,3.5l-2.1-1.9c0.1-0.1,0.3-0.1,0.5-0.1s0.3,0,0.5,0c0.4-0.1,0.6-0.5,0.8-0.8
			c0.2-0.5,0.4-0.9,0.7-1.4c0.1-0.2,0.2-0.4,0.4-0.6c0.4-0.4,1-0.3,1.5-0.2C276,435.5,276.1,435.5,276.3,435.5z"/>
	</g>
	<g>
		<polygon class="st3" points="38.9,378.7 37.3,379.9 34.1,382 33.5,387 30.6,384.3 29.3,383.2 23.9,384.4 26.2,379.7 23.6,374.6 
			29.1,374.9 32.6,371.4 33.9,376.5 		"/>
		<path class="st4" d="M37.3,379.9l-3.1,2.1l-0.6,5l-2.9-2.7c0.2-0.1,0.4-0.2,0.6-0.2s0.5,0,0.7,0c0.5-0.1,0.8-0.7,1.1-1.2
			c0.3-0.7,0.6-1.3,0.9-2c0.1-0.3,0.3-0.6,0.5-0.8c0.5-0.5,1.4-0.4,2.1-0.3C36.8,379.8,37,379.8,37.3,379.9z"/>
	</g>
	<g>
		<polygon class="st3" points="374.4,143.4 372.7,144.5 369.5,146.7 368.9,151.7 366,149 364.7,147.9 359.3,149.1 361.7,144.4 
			359,139.3 364.5,139.6 368,136.1 369.3,141.2 		"/>
		<path class="st4" d="M372.7,144.5l-3.1,2.1l-0.6,5l-2.9-2.7c0.2-0.1,0.4-0.2,0.6-0.2c0.2,0,0.5,0,0.7,0c0.5-0.1,0.8-0.7,1.1-1.2
			c0.3-0.7,0.6-1.3,0.9-2c0.1-0.3,0.3-0.6,0.5-0.8c0.5-0.5,1.4-0.4,2.1-0.3C372.2,144.5,372.4,144.5,372.7,144.5z"/>
	</g>
	<g>
		<polygon class="st3" points="81.2,167.2 80,168 77.9,169.4 77.5,172.8 75.6,171 74.7,170.2 71.1,171.1 72.6,167.9 70.9,164.5 
			74.6,164.7 76.9,162.3 77.8,165.7 		"/>
		<path class="st4" d="M80,168l-2.1,1.4l-0.4,3.4l-2-1.8c0.1-0.1,0.3-0.1,0.4-0.1c0.2,0,0.3,0,0.5,0c0.4-0.1,0.6-0.5,0.7-0.8
			c0.2-0.4,0.4-0.9,0.6-1.3c0.1-0.2,0.2-0.4,0.4-0.5c0.4-0.3,0.9-0.3,1.4-0.2C79.7,168,79.9,168,80,168z"/>
	</g>
	<g>
		<polygon class="st3" points="406.1,253 405,253.7 402.9,255.1 402.5,258.5 400.5,256.7 399.7,255.9 396,256.8 397.6,253.6 
			395.8,250.2 399.5,250.4 401.9,248.1 402.8,251.4 		"/>
		<path class="st4" d="M405,253.7l-2.1,1.4l-0.4,3.4l-2-1.8c0.1-0.1,0.3-0.1,0.4-0.1c0.2,0,0.3,0,0.5,0c0.4-0.1,0.6-0.5,0.7-0.8
			c0.2-0.4,0.4-0.9,0.6-1.3c0.1-0.2,0.2-0.4,0.4-0.5c0.4-0.3,0.9-0.3,1.4-0.2C404.7,253.7,404.8,253.7,405,253.7z"/>
	</g>
	<g>
		<polygon class="st3" points="185.3,65.2 184.6,65.7 183.2,66.6 182.9,68.9 181.6,67.7 181,67.2 178.6,67.7 179.6,65.6 178.4,63.3 
			180.9,63.4 182.5,61.9 183.1,64.1 		"/>
		<path class="st4" d="M184.6,65.7l-1.4,0.9l-0.3,2.3l-1.3-1.2c0.1-0.1,0.2-0.1,0.3-0.1c0.1,0,0.2,0,0.3,0c0.2-0.1,0.4-0.3,0.5-0.5
			c0.1-0.3,0.3-0.6,0.4-0.9c0.1-0.1,0.1-0.3,0.2-0.4c0.2-0.2,0.6-0.2,1-0.1C184.4,65.6,184.5,65.7,184.6,65.7z"/>
	</g>
	<g>
		<polygon class="st3" points="120.8,211.6 120,212.2 118.6,213.1 118.3,215.4 117,214.2 116.4,213.6 114,214.2 115,212.1 
			113.9,209.8 116.3,209.9 117.9,208.4 118.5,210.6 		"/>
		<path class="st4" d="M120,212.2l-1.4,0.9l-0.3,2.3l-1.3-1.2c0.1-0.1,0.2-0.1,0.3-0.1c0.1,0,0.2,0,0.3,0c0.2-0.1,0.4-0.3,0.5-0.5
			c0.1-0.3,0.3-0.6,0.4-0.9c0.1-0.1,0.1-0.3,0.2-0.4c0.2-0.2,0.6-0.2,1-0.1C119.8,212.1,119.9,212.2,120,212.2z"/>
	</g>
	<g>
		<polygon class="st3" points="463.7,146 462.9,146.6 461.5,147.5 461.2,149.8 459.9,148.6 459.3,148 456.9,148.6 457.9,146.5 
			456.8,144.2 459.2,144.3 460.8,142.8 461.4,145 		"/>
		<path class="st4" d="M462.9,146.6l-1.4,0.9l-0.3,2.3l-1.3-1.2c0.1-0.1,0.2-0.1,0.3-0.1c0.1,0,0.2,0,0.3,0c0.2-0.1,0.4-0.3,0.5-0.5
			c0.1-0.3,0.3-0.6,0.4-0.9c0.1-0.1,0.1-0.3,0.2-0.4c0.2-0.2,0.6-0.2,1-0.1C462.7,146.5,462.8,146.5,462.9,146.6z"/>
	</g>
	<g>
		<polygon class="st3" points="418.4,352.4 417,353.3 414.3,355.1 413.8,359.5 411.3,357.2 410.2,356.2 405.6,357.3 407.6,353.2 
			405.3,348.8 410,349.1 413,346.1 414.1,350.4 		"/>
		<path class="st4" d="M417,353.3l-2.7,1.8l-0.5,4.3l-2.5-2.3c0.2-0.1,0.3-0.2,0.5-0.2c0.2,0,0.4,0,0.6,0c0.5-0.1,0.7-0.6,0.9-1
			c0.3-0.6,0.5-1.1,0.8-1.7c0.1-0.3,0.2-0.5,0.4-0.7c0.5-0.4,1.2-0.4,1.8-0.3C416.6,353.3,416.8,353.3,417,353.3z"/>
	</g>
	<g>
		<polygon class="st3" points="348.8,449.6 347.8,450.2 346,451.4 345.7,454.3 344,452.8 343.3,452.1 340.2,452.8 341.5,450.1 
			340,447.2 343.1,447.4 345.2,445.4 345.9,448.3 		"/>
		<path class="st4" d="M347.8,450.2l-1.8,1.2l-0.3,2.9l-1.7-1.5c0.1-0.1,0.2-0.1,0.4-0.1c0.1,0,0.3,0,0.4,0c0.3-0.1,0.5-0.4,0.6-0.7
			c0.2-0.4,0.4-0.8,0.5-1.1c0.1-0.2,0.2-0.3,0.3-0.5c0.3-0.3,0.8-0.2,1.2-0.2C347.5,450.2,347.7,450.2,347.8,450.2z"/>
	</g>
	<g class="st2">
		<path class="st1" d="M293.1,266.4c0,0.8-0.6,1.4-1.4,1.4s-1.4-0.6-1.4-1.4c0-0.8,0.6-1.4,1.4-1.4S293.1,265.7,293.1,266.4z"/>
		<path class="st1" d="M305.8,313.8c0,0.8-0.6,1.4-1.4,1.4c-0.8,0-1.4-0.6-1.4-1.4s0.6-1.4,1.4-1.4S305.8,313,305.8,313.8z"/>
		<path class="st1" d="M313.5,285.4c0,0.4-0.3,0.7-0.7,0.7c-0.4,0-0.7-0.3-0.7-0.7c0-0.4,0.3-0.7,0.7-0.7
			C313.2,284.8,313.5,285.1,313.5,285.4z"/>
		<path class="st1" d="M277.2,308.6c0,0.4-0.3,0.7-0.7,0.7s-0.7-0.3-0.7-0.7c0-0.4,0.3-0.7,0.7-0.7S277.2,308.3,277.2,308.6z"/>
		<path class="st1" d="M262.7,289.3c0,0.4-0.3,0.7-0.7,0.7s-0.7-0.3-0.7-0.7c0-0.4,0.3-0.7,0.7-0.7S262.7,288.9,262.7,289.3z"/>
		<path class="st1" d="M317.1,311.3c0,0.4-0.3,0.7-0.7,0.7c-0.4,0-0.7-0.3-0.7-0.7s0.3-0.7,0.7-0.7
			C316.8,310.6,317.1,310.9,317.1,311.3z"/>
		<path class="st1" d="M302.6,291.9c0,0.4-0.3,0.7-0.7,0.7c-0.4,0-0.7-0.3-0.7-0.7c0-0.4,0.3-0.7,0.7-0.7
			C302.3,291.2,302.6,291.6,302.6,291.9z"/>
		<path class="st1" d="M292.7,330.3c0,0.4-0.3,0.7-0.7,0.7s-0.7-0.3-0.7-0.7c0-0.4,0.3-0.7,0.7-0.7
			C292.4,329.6,292.7,329.9,292.7,330.3z"/>
	</g>
	<g class="st2">
		<path class="st1" d="M222.4,153.4c0,0.8-0.6,1.4-1.4,1.4s-1.4-0.6-1.4-1.4c0-0.8,0.6-1.4,1.4-1.4S222.4,152.7,222.4,153.4z"/>
		<path class="st1" d="M235.1,200.8c0,0.8-0.6,1.4-1.4,1.4s-1.4-0.6-1.4-1.4c0-0.8,0.6-1.4,1.4-1.4
			C234.5,199.4,235.1,200,235.1,200.8z"/>
		<path class="st1" d="M242.8,172.4c0,0.4-0.3,0.7-0.7,0.7c-0.4,0-0.7-0.3-0.7-0.7s0.3-0.7,0.7-0.7S242.8,172.1,242.8,172.4z"/>
		<path class="st1" d="M206.5,195.6c0,0.4-0.3,0.7-0.7,0.7c-0.4,0-0.7-0.3-0.7-0.7s0.3-0.7,0.7-0.7
			C206.2,194.9,206.5,195.3,206.5,195.6z"/>
		<path class="st1" d="M192,176.3c0,0.4-0.3,0.7-0.7,0.7c-0.4,0-0.7-0.3-0.7-0.7s0.3-0.7,0.7-0.7S192,175.9,192,176.3z"/>
		<path class="st1" d="M246.4,198.3c0,0.4-0.3,0.7-0.7,0.7c-0.4,0-0.7-0.3-0.7-0.7s0.3-0.7,0.7-0.7S246.4,197.9,246.4,198.3z"/>
		<path class="st1" d="M231.9,178.9c0,0.4-0.3,0.7-0.7,0.7c-0.4,0-0.7-0.3-0.7-0.7s0.3-0.7,0.7-0.7S231.9,178.6,231.9,178.9z"/>
		<path class="st1" d="M222,217.3c0,0.4-0.3,0.7-0.7,0.7c-0.4,0-0.7-0.3-0.7-0.7s0.3-0.7,0.7-0.7S222,216.9,222,217.3z"/>
	</g>
	<g>
		<polygon class="st3" points="205.4,289.6 204.3,290.4 202.2,291.8 201.8,295.2 199.8,293.4 198.9,292.6 195.3,293.5 196.9,290.3 
			195.1,286.9 198.8,287.1 201.2,284.7 202,288.1 		"/>
		<path class="st4" d="M204.3,290.4l-2.1,1.4l-0.4,3.4l-2-1.8c0.1-0.1,0.3-0.1,0.4-0.1c0.2,0,0.3,0,0.5,0c0.4-0.1,0.6-0.5,0.7-0.8
			c0.2-0.4,0.4-0.9,0.6-1.3c0.1-0.2,0.2-0.4,0.4-0.5c0.4-0.3,0.9-0.3,1.4-0.2C203.9,290.4,204.1,290.4,204.3,290.4z"/>
	</g>
</g>
<g>
	<path class="st5" d="M312.6,256.1c0,4.7-1.1,9.2-2.9,13.1c-4.5,9.4-13.7,16.2-24.7,17.2c-0.4,0-0.7,0.1-1.1,0.1
		c-0.5,0-1.2,0.1-1.8,0.1c-16.9,0-30.5-13.7-30.5-30.5c0-4.4,0.9-8.6,2.7-12.5c0-0.1,0-0.1,0.1-0.2c4.8-10.5,15.4-17.9,27.8-17.9
		c0.2,0,0.4,0,0.5,0C299.3,225.9,312.6,239.4,312.6,256.1z"/>
	<path class="st6" d="M294.4,278c-2.1,2.1-5.7,1.1-8.3-0.2c-2.7-1.3-5.8-2.8-8.4-1.5c-0.6,2.1,0.5,4.7,2.5,5.6
		c1.4,0.6,3.2,0.7,4.1,1.9c0.5,0.6,0.5,1.4,0.7,2.1c0,0.2,0.1,0.3,0.1,0.5c-0.4,0-0.7,0.1-1.1,0.1c-0.5,0-1.2,0.1-1.8,0.1
		c-16.9,0-30.5-13.7-30.5-30.5c0-4.4,0.9-8.6,2.7-12.5c2.6,0.3,5.6,0.8,9.1,0.8c4.4,0.1,9.9,0,11.6,4c1.4,3-0.3,7.2,2.2,9.5
		c3.2,3,9.9-0.6,12.1,3.1c1.6,2.8-1.5,7.2,1,9.3c0.9,0.7,2.1,0.8,3.2,1.4C295.7,272.9,296.1,276.3,294.4,278z"/>
	<path class="st7" d="M312.6,256.1c0,4.7-1.1,9.2-2.9,13.1c-0.5-0.2-1-0.3-1.5-0.5c-3-1.3-5.5-4.5-4.9-7.8c0.2-1.2,0.8-2.5,0.4-3.7
		c-1.2-3.4-7.2-0.5-9.6-3.2c-2.6-3,2.7-8.4-0.1-11.2c-1.7-1.6-4.9-0.5-6.8-1.8c-2.2-1.6-1.4-4.9-1.3-7.7c0.1-2.3-2.3-5.3-3.1-7.6
		C299.3,225.9,312.6,239.4,312.6,256.1z"/>
	<path class="st7" d="M292.4,276c-2,1.9-5.3,1.1-7.9-0.2c-2.6-1.2-5.5-2.7-8-1.4c-0.6,2,0.4,4.4,2.3,5.3c1.3,0.6,3,0.6,3.9,1.8
		c0.5,0.5,0.5,1.3,0.6,2c0.2,1,0.4,1.9,0.5,2.9c-0.5,0-1.2,0.1-1.8,0.1c-16.9,0-30.5-13.7-30.5-30.5c0-4.5,1-8.8,2.7-12.6
		c2.4,0.3,5.3,0.7,8.6,0.8c4.1,0.1,9.3,0,11,3.8c1.3,2.8-0.2,6.9,2.1,9c3,2.8,9.3-0.6,11.5,2.9c1.6,2.7-1.4,6.9,0.9,8.9
		c0.8,0.7,2,0.8,3,1.3C293.6,271.2,294,274.4,292.4,276z"/>
	<path class="st8" d="M299.6,231c4.9,5.4,8.1,12.6,8.1,20.6c0,4.7-1.1,9.2-2.9,13.1c-4.5,9.4-13.7,16.2-24.7,17.2
		c-0.4,0-0.7,0.1-1.1,0.1c-0.5,0-1.2,0.1-1.8,0.1c-6.5,0-12.5-2-17.4-5.5c5.6,6.1,13.6,9.9,22.5,9.9c0.6,0,1.2,0,1.8-0.1
		c0.4,0,0.7-0.1,1.1-0.1c10.9-1,20.2-7.8,24.7-17.2c1.9-3.9,2.9-8.4,2.9-13.1C312.6,245.7,307.5,236.5,299.6,231z"/>
	<g>
		<circle class="st6" cx="262.1" cy="255.6" r="3.8"/>
		<path class="st9" d="M262.9,258.3c-2.1,0-3.8-1.7-3.8-3.8c0-0.5,0.1-1,0.3-1.4c-0.6,0.6-0.9,1.6-0.9,2.6c0,2.1,1.7,3.8,3.8,3.8
			c1.6,0,2.9-1,3.6-2.4C265,257.8,264,258.3,262.9,258.3z"/>
	</g>
	<g>
		<path class="st6" d="M278.3,266.2c0,1.3-1,2.3-2.3,2.3s-2.3-1-2.3-2.3s1-2.3,2.3-2.3S278.3,265,278.3,266.2z"/>
		<path class="st9" d="M276.4,267.9c-1.3,0-2.3-1-2.3-2.3c0-0.3,0.1-0.5,0.2-0.8c-0.4,0.4-0.5,0.9-0.5,1.6c0,1.3,1,2.3,2.3,2.3
			c1,0,1.8-0.6,2.1-1.5C277.7,267.6,277.1,267.9,276.4,267.9z"/>
	</g>
	<g>
		<circle class="st6" cx="293.5" cy="237" r="2.3"/>
		<path class="st9" d="M293.9,238.6c-1.3,0-2.3-1-2.3-2.3c0-0.3,0.1-0.5,0.2-0.8c-0.4,0.4-0.5,0.9-0.5,1.6c0,1.3,1,2.3,2.3,2.3
			c1,0,1.8-0.6,2.1-1.5C295.2,238.4,294.6,238.6,293.9,238.6z"/>
	</g>
	<g>
		<path class="st6" d="M269.3,272.3c0,1.7-1.4,3.1-3.1,3.1s-3.1-1.4-3.1-3.1s1.4-3.1,3.1-3.1S269.3,270.5,269.3,272.3z"/>
		<path class="st9" d="M266.8,274.5c-1.7,0-3.1-1.4-3.1-3.1c0-0.4,0.1-0.8,0.2-1.2c-0.5,0.5-0.8,1.3-0.8,2c0,1.7,1.4,3.1,3.1,3.1
			c1.3,0,2.4-0.8,2.8-1.9C268.5,274,267.7,274.5,266.8,274.5z"/>
	</g>
</g>
<g>
	<path class="st10" d="M415.8,91.1c0,5.6-2.2,10.7-5.8,14.4c-2.3,2.3-5.1,4.1-8.2,5.2c-2,0.7-4.3,1.1-6.5,1.1
		c-8.5,0-15.7-5.1-18.9-12.3c-0.3-0.7-0.6-1.4-0.8-2.2c-0.6-1.9-0.9-4-0.9-6.1c0-3.7,0.9-7.1,2.7-10.1c1.1-1.9,2.5-3.7,4.1-5.1
		c3.6-3.3,8.5-5.4,13.8-5.4c6.4,0,12.2,2.9,15.9,7.5c1.2,1.4,2.1,2.9,2.9,4.6C415.1,85.2,415.8,88.1,415.8,91.1z"/>
	<path class="st11" d="M411.1,78c-0.5,0.4-1.1,0.7-1.7,1c-2.1,0.9-4.4,1.1-6.6,1.2c-1.4,0.1-3.1,0.3-3.7,1.6c-0.6,1.2,0,2.9-1.1,3.6
		c-1.2,0.8-2.6-0.8-3-2.2c-0.4-1.4-0.9-3.2-2.4-3.3c-2-0.2-2.7,3-4.5,3.7c-1.4,0.6-3-0.6-3.8-2s-0.9-3-1.7-4.3
		c-0.3-0.6-0.8-1.1-1.2-1.5c3.6-3.3,8.5-5.4,13.8-5.4C401.5,70.5,407.2,73.4,411.1,78z"/>
	<path class="st11" d="M401.7,110.7c-2,0.7-4.3,1.1-6.5,1.1c-8.5,0-15.7-5.1-18.9-12.3c2.3-0.8,5.3,0.2,7.5,1
		c1.5,0.6,3.4,0.8,4.5-0.3c1.4-1.3,1.2-3.8,2.6-5.1c1.3-1.2,3.9-0.6,4.4,1.2c0.4,1.3-0.1,3.2,1.2,3.9c0.8,0.4,1.8,0,2.5,0.5
		c1,0.7,0.3,2.3,0.2,3.5C398.9,106.5,401.3,108.4,401.7,110.7z"/>
	<path class="st11" d="M415.8,91.1c0,5.6-2.2,10.7-5.8,14.4c-0.4,0-0.7-0.1-1.1-0.2c-0.6-0.3-1-1-1.3-1.7c-1.2-2.5-2.4-5.1-2.5-7.9
		c0-1.2,0-2.7-1.1-3.2c-0.4-0.2-1-0.2-1.4-0.5c-1.1-0.7-0.2-2.4,0.9-2.9c1.2-0.4,2.5-0.2,3.6-0.6c3-0.9,3.9-4.9,6.7-6
		C415.1,85.2,415.8,88.1,415.8,91.1z"/>
	<path class="st12" d="M388.8,91.3c-0.9,0.6-2.2,0.7-3.3,0.6c-1.1-0.1-2.3-0.3-3.4,0c-1.9,0.4-3.3,2-4.6,3.4c-0.7,0.7-1.3,1.4-2.1,2
		c-0.6-1.9-0.9-4-0.9-6.1c0-3.7,0.9-7.1,2.7-10.1c0.9,0.3,1.7,0.9,2.2,1.5c0.8,1.2,1,2.9,2.2,3.6c1,0.7,2.4,0.3,3.5,0.6
		c1.6,0.4,3,1.9,4.6,1.7C390.3,89.3,389.7,90.7,388.8,91.3z"/>
	<g>
		<path class="st13" d="M390,77.5c0,1.1-0.9,1.9-1.9,1.9s-1.9-0.9-1.9-1.9s0.9-1.9,1.9-1.9S390,76.4,390,77.5z"/>
		<path class="st14" d="M388.4,79c-1.1,0-1.9-0.9-1.9-1.9c0-0.3,0.1-0.7,0.3-0.9c-0.4,0.3-0.6,0.8-0.6,1.4c0,1.1,0.9,1.9,1.9,1.9
			c0.7,0,1.4-0.4,1.7-1C389.4,78.8,388.9,79,388.4,79z"/>
	</g>
	<g>
		<path class="st13" d="M394,102.7c0,1.2-0.9,2.1-2.1,2.1c-1.2,0-2.1-0.9-2.1-2.1c0-1.2,0.9-2.1,2.1-2.1
			C393,100.6,394,101.5,394,102.7z"/>
		<path class="st14" d="M392.2,104.3c-1.2,0-2.1-0.9-2.1-2.1c0-0.4,0.1-0.7,0.3-1.1c-0.4,0.4-0.7,0.9-0.7,1.5c0,1.2,0.9,2.1,2.1,2.1
			c0.8,0,1.5-0.4,1.8-1.1C393.3,104.1,392.8,104.3,392.2,104.3z"/>
	</g>
	<g>
		<path class="st13" d="M412.3,93.1c0,1.5-1.3,2.8-2.8,2.8c-1.5,0-2.8-1.3-2.8-2.8s1.3-2.8,2.8-2.8
			C411.1,90.3,412.3,91.5,412.3,93.1z"/>
		<path class="st14" d="M410,95.2c-1.5,0-2.8-1.3-2.8-2.8c0-0.5,0.1-1,0.4-1.4c-0.6,0.5-0.9,1.2-0.9,2c0,1.5,1.3,2.8,2.8,2.8
			c1.1,0,1.9-0.6,2.4-1.4C411.4,95,410.8,95.2,410,95.2z"/>
	</g>
	<g>
		<path class="st13" d="M401.1,75.2c0,1.5-1.3,2.8-2.8,2.8c-1.5,0-2.8-1.3-2.8-2.8s1.3-2.8,2.8-2.8
			C399.8,72.4,401.1,73.7,401.1,75.2z"/>
		<path class="st14" d="M398.8,77.4c-1.5,0-2.8-1.3-2.8-2.8c0-0.5,0.1-1,0.4-1.4c-0.6,0.5-0.9,1.2-0.9,2c0,1.5,1.3,2.8,2.8,2.8
			c1.1,0,1.9-0.6,2.4-1.4C400.2,77.1,399.6,77.4,398.8,77.4z"/>
	</g>
	<path class="st8" d="M413.9,82.6c-0.8-1.7-1.7-3.2-2.9-4.6c-1.5-1.8-3.4-3.4-5.5-4.6c0.3,0.3,0.6,0.7,0.9,1
		c1.2,1.4,2.1,2.9,2.9,4.6c1.2,2.6,1.8,5.5,1.8,8.5c0,5.6-2.2,10.7-5.8,14.4c-2.3,2.3-5.1,4.1-8.2,5.2c-2,0.7-4.3,1.1-6.5,1.1
		c-3.8,0-7.4-1.1-10.5-2.8c3.8,4,9.1,6.5,15,6.5c2.3,0,4.5-0.4,6.5-1.1c3.2-1.1,6-2.9,8.2-5.2c3.6-3.7,5.8-8.8,5.8-14.4
		C415.8,88.1,415.1,85.2,413.9,82.6z"/>
</g>
<g>
	<circle class="st15" cx="94" cy="91.5" r="39.4"/>
	<g>
		<path class="st16" d="M86.1,68.7c-0.6,3.2-3.7,5.2-6.9,4.6s-5.2-3.7-4.6-6.9c0.6-3.2,3.7-5.2,6.9-4.6
			C84.7,62.5,86.8,65.5,86.1,68.7z"/>
		<path class="st17" d="M80.4,71.2c-3.2-0.6-5.2-3.7-4.6-6.9c0-0.2,0.1-0.3,0.1-0.5c-0.6,0.7-1,1.6-1.2,2.6
			c-0.6,3.2,1.4,6.2,4.6,6.9c3,0.6,5.9-1.2,6.7-4.1C84.7,70.8,82.5,71.7,80.4,71.2z"/>
	</g>
	<g>
		<path class="st16" d="M80.2,102.1c-0.4,1.8-2.1,3-4,2.6c-1.8-0.4-3-2.1-2.6-4c0.4-1.8,2.1-3,4-2.6
			C79.4,98.5,80.5,100.3,80.2,102.1z"/>
		<path class="st17" d="M76.9,103.5c-1.8-0.4-3-2.1-2.6-4c0-0.1,0-0.2,0.1-0.3c-0.3,0.4-0.6,0.9-0.7,1.5c-0.4,1.8,0.8,3.6,2.6,4
			c1.7,0.3,3.4-0.7,3.9-2.4C79.3,103.3,78.1,103.8,76.9,103.5z"/>
	</g>
	<g>
		<path class="st16" d="M107.3,62.8c-0.3,1.4-1.7,2.4-3.1,2.1c-1.4-0.3-2.4-1.7-2.1-3.1c0.3-1.4,1.7-2.4,3.1-2.1
			C106.7,60,107.6,61.4,107.3,62.8z"/>
		<path class="st17" d="M104.7,64c-1.4-0.3-2.4-1.7-2.1-3.1c0-0.1,0-0.2,0.1-0.2c-0.3,0.3-0.5,0.7-0.6,1.2c-0.3,1.4,0.6,2.8,2.1,3.1
			c1.4,0.3,2.7-0.5,3.1-1.9C106.7,63.8,105.7,64.1,104.7,64z"/>
	</g>
	<g>
		<path class="st16" d="M122.3,83.2c-0.6,2.8-3.3,4.6-6.1,4.1c-2.8-0.6-4.6-3.3-4.1-6.1c0.6-2.8,3.3-4.6,6.1-4.1
			C121.1,77.7,122.9,80.4,122.3,83.2z"/>
		<path class="st17" d="M117.2,85.4c-2.8-0.6-4.6-3.3-4.1-6.1c0-0.2,0.1-0.3,0.1-0.5c-0.5,0.6-0.9,1.4-1.1,2.3
			c-0.6,2.8,1.3,5.5,4.1,6.1c2.6,0.5,5.2-1.1,5.9-3.6C121,85.1,119.1,85.8,117.2,85.4z"/>
	</g>
	<g>
		<ellipse class="st16" cx="102.8" cy="107.3" rx="9.7" ry="9.7"/>
		<path class="st17" d="M102.8,113.3c-5.3-1-8.7-6.1-7.6-11.4c0.1-0.3,0.1-0.6,0.2-0.9c-1,1.2-1.7,2.7-2,4.3
			c-1,5.3,2.4,10.4,7.6,11.4c5,1,9.8-2,11.2-6.8C110,112.6,106.4,114,102.8,113.3z"/>
	</g>
	<g>
		<path class="st16" d="M94.1,125c-0.5,2.5-3,4.2-5.5,3.7s-4.2-3-3.7-5.5s3-4.2,5.5-3.7C93,120,94.6,122.5,94.1,125z"/>
		<path class="st17" d="M89.5,127c-2.5-0.5-4.2-3-3.7-5.5c0-0.1,0.1-0.3,0.1-0.4c-0.5,0.6-0.8,1.3-1,2.1c-0.5,2.5,1.2,5,3.7,5.5
			c2.4,0.5,4.7-1,5.4-3.3C92.9,126.7,91.2,127.4,89.5,127z"/>
	</g>
	<g>
		<path class="st16" d="M128.3,104.6c-0.5,2.5-3,4.2-5.5,3.7s-4.2-3-3.7-5.5s3-4.2,5.5-3.7S128.8,102.1,128.3,104.6z"/>
		<path class="st17" d="M123.6,106.7c-2.5-0.5-4.2-3-3.7-5.5c0-0.1,0.1-0.3,0.1-0.4c-0.5,0.6-0.8,1.3-1,2.1c-0.5,2.5,1.2,5,3.7,5.5
			c2.4,0.5,4.7-1,5.4-3.3C127.1,106.3,125.4,107,123.6,106.7z"/>
	</g>
	<g>
		<path class="st16" d="M100.2,76.9c-0.3,1.5-1.7,2.4-3.2,2.1s-2.4-1.7-2.1-3.2c0.3-1.5,1.7-2.4,3.2-2.1
			C99.5,74,100.5,75.4,100.2,76.9z"/>
		<path class="st17" d="M97.6,78c-1.5-0.3-2.4-1.7-2.1-3.2c0-0.1,0-0.2,0.1-0.2c-0.3,0.3-0.5,0.7-0.6,1.2c-0.3,1.5,0.7,2.9,2.1,3.2
			c1.4,0.3,2.7-0.6,3.1-1.9C99.5,77.8,98.6,78.2,97.6,78z"/>
	</g>
	<g>
		<path class="st16" d="M70.2,75.8c-0.3,1.4-1.6,2.3-3,2s-2.3-1.6-2-3s1.6-2.3,3-2C69.5,73.1,70.4,74.4,70.2,75.8z"/>
		<path class="st17" d="M67.6,76.9c-1.4-0.3-2.3-1.6-2-3c0-0.1,0-0.2,0.1-0.2c-0.3,0.3-0.5,0.7-0.5,1.1c-0.3,1.4,0.6,2.7,2,3
			c1.3,0.3,2.6-0.5,2.9-1.8C69.5,76.7,68.6,77.1,67.6,76.9z"/>
	</g>
	<path class="st18" d="M119.4,61.4c5.8,6.9,9.3,15.8,9.3,25.5c0,21.8-17.7,39.4-39.4,39.4c-9.7,0-18.6-3.5-25.5-9.3
		c7.2,8.5,18,14,30.1,14c21.8,0,39.4-17.7,39.4-39.4C133.4,79.4,128,68.6,119.4,61.4z"/>
</g>
</svg>
